<svg width="116" height="16" viewBox="0 0 116 16" fill="none" xmlns="http://www.w3.org/2000/svg">
<path fill-rule="evenodd" clip-rule="evenodd" d="M72.1721 2.56324C72.1721 3.97303 72.1395 5.12648 72.0995 5.12648C72.0597 5.12648 71.8398 4.99027 71.611 4.82378C71.0027 4.38132 70.2021 4.15001 69.2782 4.15001C67.6507 4.15001 66.3366 4.92887 65.6203 6.31779C65.22 7.09384 65.198 7.20686 65.198 8.48116C65.198 9.59715 65.2445 9.9217 65.4715 10.3899C66.5398 12.5938 69.5461 13.3955 71.562 12.0142L72.1721 11.596V12.0841V12.5721H73.1318H74.0916V6.28605V0H73.1318H72.1721V2.56324ZM102.5 2.6471V5.2942L102.148 4.98014C101.448 4.35544 100.992 4.21348 99.6845 4.21214C98.6553 4.21116 98.3722 4.25632 97.8389 4.50679C96.9979 4.90153 96.2773 5.61118 95.8645 6.45107C95.5654 7.05954 95.5256 7.29084 95.5256 8.42208C95.5256 9.54759 95.5662 9.78622 95.8585 10.3806C96.5572 11.8014 97.7032 12.5562 99.3309 12.6677C100.406 12.7414 101.209 12.5369 101.943 12.0027L102.5 11.5972V12.0847V12.5721H103.459H104.419V6.28605V0H103.459H102.5V2.6471ZM77.0817 0.704524C76.1986 1.38684 76.4072 2.59083 77.4662 2.92429C77.9327 3.07113 78.4485 2.95029 78.8556 2.59901C79.1638 2.33292 79.2723 1.65866 79.0789 1.21278C78.7885 0.544386 77.6605 0.2573 77.0817 0.704524ZM3.42344 4.32809C3.15983 4.4244 2.74228 4.64984 2.4957 4.82927L2.04743 5.15541V4.7138V4.27207H1.02372H0V10.1309V15.9897H1.02372H2.04743V13.7699V11.55L2.39934 11.864C3.10583 12.4945 3.55358 12.6335 4.86266 12.6286C5.92195 12.6247 6.1606 12.5828 6.71815 12.3034C8.00496 11.6587 8.86386 10.4181 9.0265 8.96915C9.23649 7.09859 8.31323 5.32324 6.72621 4.54609C5.92835 4.15538 4.20761 4.04174 3.42344 4.32809ZM13.393 4.33908C11.5899 4.96988 10.4925 6.77758 10.6565 8.84661C10.8295 11.0288 12.3124 12.5136 14.4696 12.6649C15.5691 12.742 16.5471 12.4732 17.1803 11.9199L17.6591 11.5016V12.0369V12.5721H18.6189H19.5786V8.42208V4.27207H18.5549H17.5312V4.70551V5.13893L17.1064 4.83C16.8729 4.65997 16.4337 4.43746 16.1307 4.33554C15.4512 4.1068 14.0515 4.10864 13.393 4.33908ZM25.7725 4.28171C25.5546 4.34201 25.1083 4.6164 24.7807 4.8914L24.1853 5.39135V4.83171V4.27207H23.1616H22.1379V8.42208V12.5721H23.1616H24.1853V10.1722C24.1853 7.83608 24.1938 7.75845 24.5034 7.25447C24.8932 6.62 25.6704 6.22502 26.5291 6.22502H27.1285V5.18751V4.15001L26.6486 4.161C26.3848 4.1671 25.9905 4.22141 25.7725 4.28171ZM30.6726 4.38449C29.0896 4.99002 28.1478 6.32755 28.0497 8.10925C27.8936 10.945 29.7549 12.8533 32.4945 12.6664C33.4318 12.6025 34.0259 12.3639 34.6464 11.8021L35.0623 11.4257V11.9989V12.5721H36.0221H36.9818V8.42208V4.27207H35.9581H34.9344V4.77691V5.28187L34.6089 4.97147C34.0495 4.43782 33.4177 4.2213 32.3111 4.18395C31.5341 4.1577 31.1392 4.20604 30.6726 4.38449ZM42.8682 4.40377C42.5515 4.54035 42.1052 4.82451 41.8764 5.03531L41.4606 5.41845V4.84526V4.27207H40.4368H39.4131V8.42208V12.5721H40.4368H41.4606V10.381C41.4606 9.17592 41.5233 7.91102 41.5999 7.57011C41.9957 5.80977 44.1015 5.2317 44.9942 6.63831C45.2083 6.97544 45.2401 7.33271 45.2762 9.79525L45.3168 12.5721H46.3319H47.3469L47.3482 10.1004C47.3494 7.76418 47.3659 7.59501 47.6498 7.01328C47.9976 6.30094 48.4563 5.96918 49.2047 5.88874C49.8759 5.81661 50.4638 6.09308 50.7678 6.62379C50.9613 6.9614 50.9998 7.41924 51.0346 9.79525L51.0752 12.5721H52.0903H53.1054V9.89278C53.1054 6.53017 52.9038 5.5471 52.0604 4.79668C50.9749 3.83082 48.4958 3.96594 47.3203 5.05496L46.8767 5.46593L46.5198 5.03921C46.3233 4.80449 45.9254 4.5096 45.6352 4.38388C44.9063 4.06823 43.6248 4.07738 42.8682 4.40377ZM57.6481 4.44613C57.1133 4.65827 56.6803 4.95365 56.2214 5.4193C55.3564 6.29703 55.0878 7.02536 55.0917 8.48311C55.0943 9.40722 55.1478 9.69052 55.4289 10.2676C55.8986 11.2314 56.5481 11.8667 57.4866 12.2801C58.2092 12.5985 58.4198 12.6331 59.6315 12.6331C60.8107 12.6331 61.0613 12.5944 61.679 12.317C62.5014 11.9475 63.2432 11.384 63.1887 11.1701C63.1677 11.0877 62.8698 10.7897 62.5266 10.5077C61.9043 9.99652 61.902 9.9958 61.6309 10.2319C60.228 11.4534 57.9361 11.0642 57.2642 9.4901L57.0688 9.03238H60.2595H63.4501L63.5351 8.66352C63.5818 8.46066 63.5825 8.0625 63.5364 7.77859C63.292 6.26859 62.5724 5.18556 61.4131 4.58234C60.8177 4.27255 60.556 4.21568 59.5676 4.1815C58.5719 4.14696 58.3119 4.18285 57.6481 4.44613ZM84.1368 4.31394C82.9082 4.70099 82.0593 5.40234 81.528 6.46914C81.2334 7.06063 81.1936 7.29291 81.1936 8.42208C81.1936 9.91719 81.4031 10.4896 82.2837 11.4009C83.0525 12.1964 83.9909 12.6009 85.2264 12.6691C86.8156 12.7569 87.8693 12.4506 88.8312 11.6217L89.3515 11.1733L88.6721 10.6019L87.9928 10.0306L87.5686 10.3391C85.6132 11.7617 83.1889 10.6837 83.1799 8.38767C83.1763 7.48907 83.3899 7.00986 84.0455 6.44558C84.9155 5.69687 86.3432 5.65366 87.3713 6.34488C87.6727 6.5475 87.9608 6.71081 88.0114 6.70776C88.0622 6.70483 88.3802 6.46584 88.7183 6.1768L89.3328 5.65122L88.852 5.24866C88.0071 4.54096 87.1048 4.22727 85.8003 4.1876C85.0912 4.166 84.452 4.21458 84.1368 4.31394ZM110.529 4.32419C110.265 4.41403 109.848 4.6341 109.602 4.81328L109.154 5.13893V4.70551V4.27207H108.13H107.106V10.136V16L108.098 15.9644L109.09 15.9287L109.125 13.8193L109.16 11.71L109.714 12.0739C111.667 13.3556 114.576 12.5919 115.644 10.5167C115.968 9.88801 116 9.70456 116 8.48055C116 7.20601 115.978 7.09249 115.579 6.31912C115.083 5.35876 114.391 4.74383 113.414 4.39511C112.612 4.10876 111.26 4.07543 110.529 4.32419ZM76.9068 8.42208V12.5721H77.8665H78.8263V8.42208V4.27207H77.8665H76.9068V8.42208ZM5.63428 6.13347C7.35004 6.9603 7.48274 9.56493 5.86117 10.5885C5.4257 10.8634 5.18833 10.9238 4.55209 10.9219C2.96942 10.917 1.97718 9.94074 1.99049 8.40157C1.99638 7.72036 2.05895 7.49321 2.37438 7.00741C3.07921 5.92206 4.43897 5.55747 5.63428 6.13347ZM16.2246 6.09002C16.8353 6.38723 17.0738 6.64588 17.4141 7.37957C18.3175 9.32764 16.5777 11.4072 14.4924 10.8716C13.0829 10.5095 12.3552 9.07571 12.8021 7.54094C13.1948 6.19218 14.9264 5.458 16.2246 6.09002ZM33.8835 6.25444C34.9808 6.947 35.3485 8.64509 34.6478 9.78341C34.3881 10.2054 34.1268 10.4329 33.6314 10.6683C32.9046 11.0139 32.5609 11.0501 31.8352 10.8579C30.7794 10.5781 30.0717 9.62559 30.0717 8.48409C30.0717 7.37921 30.6433 6.42397 31.5433 6.02508C32.1436 5.75912 33.2743 5.86983 33.8835 6.25444ZM60.3968 6.07269C60.8782 6.30338 61.4231 6.97703 61.4231 7.34162C61.4231 7.55253 61.2815 7.56767 59.3116 7.56767C57.9227 7.56767 57.2002 7.52385 57.2002 7.43951C57.2002 7.01511 57.9122 6.21196 58.48 5.99591C58.9869 5.80318 59.9117 5.84017 60.3968 6.07269ZM70.7057 6.08831C71.7278 6.53114 72.2394 7.45147 72.1462 8.67975C72.0541 9.89546 71.1671 10.7859 69.8846 10.9499C68.9263 11.0726 67.7297 10.4137 67.3543 9.55698C67.1481 9.08596 67.1271 7.84328 67.3172 7.362C67.4957 6.9105 68.1713 6.23808 68.6531 6.03229C69.1952 5.80074 70.0992 5.8254 70.7057 6.08831ZM101.439 6.29862C103.147 7.59428 102.725 10.3311 100.736 10.8579C99.0041 11.3167 97.5147 10.1907 97.5147 8.42208C97.5147 6.8513 98.5951 5.81819 100.16 5.89289C100.817 5.92426 101.038 5.99457 101.439 6.29862ZM112.441 5.98871C112.924 6.16289 113.474 6.67481 113.772 7.22713C114.064 7.76846 114.101 8.96939 113.844 9.55698C113.446 10.4646 112.233 11.0874 111.161 10.9341C108.142 10.5022 108.433 5.88862 111.481 5.86372C111.811 5.86103 112.243 5.91731 112.441 5.98871ZM91.65 10.3149C91.1473 10.5231 90.7991 11.1977 90.9211 11.7271C91.0419 12.2514 91.6648 12.6942 92.2823 12.6942C93.7244 12.6942 94.0498 10.7388 92.6898 10.2455C92.2798 10.0969 92.156 10.105 91.65 10.3149Z" fill="black"/>
</svg>
